<svg width="30" height="30" viewBox="0 0 30 30" fill="none" xmlns="http://www.w3.org/2000/svg">
<rect width="30" height="30" rx="5" fill="#76D04B"/>
<path d="M16.5443 13.4563C15.7252 12.6376 14.6144 12.1776 13.4563 12.1776C12.2981 12.1776 11.1874 12.6376 10.3683 13.4563L7.2793 16.5443C6.46018 17.3634 6 18.4744 6 19.6328C6 20.7912 6.46018 21.9022 7.2793 22.7213C8.09842 23.5404 9.20939 24.0006 10.3678 24.0006C11.5262 24.0006 12.6372 23.5404 13.4563 22.7213L15.0003 21.1773" stroke="white" stroke-width="2" stroke-linecap="round" stroke-linejoin="round"/>
<path d="M13.4563 16.5443C14.2754 17.3631 15.3861 17.823 16.5443 17.823C17.7024 17.823 18.8132 17.3631 19.6323 16.5443L22.7213 13.4563C23.5404 12.6372 24.0006 11.5262 24.0006 10.3678C24.0006 9.20939 23.5404 8.09842 22.7213 7.2793C21.9022 6.46018 20.7912 6 19.6328 6C18.4744 6 17.3634 6.46018 16.5443 7.2793L15.0003 8.8233" stroke="white" stroke-width="2" stroke-linecap="round" stroke-linejoin="round"/>
</svg>
