<svg width="30" height="30" viewBox="0 0 30 30" fill="none" xmlns="http://www.w3.org/2000/svg">
<rect width="30" height="30" rx="5" fill="#5C8DBC"/>
<path d="M8.99998 15.1284C9.00159 13.5376 9.63425 12.0124 10.7591 10.8875C11.884 9.76266 13.4092 9.13001 14.9999 9.1284C16.0525 9.13057 17.0862 9.4085 17.9979 9.9345C18.9097 10.4605 19.6677 11.2162 20.1965 12.1264L18.6777 13.0048L23.7709 10.0646C23.6399 9.82685 23.4506 9.62637 23.2208 9.48199L15.7791 5.18617C15.3495 4.93794 14.6484 4.93794 14.2198 5.18617L6.77811 9.48199C6.35056 9.7292 6 10.3371 6 10.8325V19.4242C6 19.6724 6.08713 19.948 6.22898 20.1922L9.80444 18.1273C9.27605 17.2163 8.99848 16.1815 8.99998 15.1284V15.1284Z" fill="white"/>
<path d="M17.5977 13.6278C17.3336 13.1726 16.9547 12.7945 16.4989 12.5314C16.0431 12.2683 15.5263 12.1293 15 12.1283C14.4738 12.1293 13.9572 12.2686 13.5018 12.5321C13.0464 12.7956 12.6682 13.1741 12.4051 13.6298C12.1421 14.0855 12.0033 14.6022 12.0028 15.1284C12.0023 15.6545 12.14 16.1716 12.4022 16.6278L15 15.1283L17.5977 13.6278Z" fill="white"/>
<path d="M23.771 10.0645L18.6586 13.0158L17.5988 13.6288L17.5978 13.6278L15 15.1283L12.4033 16.6277C12.6666 17.0835 13.0452 17.462 13.5009 17.7254C13.9567 17.9887 14.4736 18.1276 15 18.1282C15.5266 18.1274 16.0438 17.9884 16.4998 17.7251C16.9558 17.4617 17.3348 17.0834 17.5988 16.6277L20.1955 18.1303C19.6669 19.0405 18.9089 19.7964 17.9971 20.3224C17.0854 20.8484 16.0516 21.1263 14.999 21.1282C13.9459 21.1276 12.9114 20.85 11.9995 20.3232C11.0876 19.7965 10.3302 19.0392 9.80349 18.1272L6.22803 20.1921C6.36987 20.4372 6.5644 20.651 6.77818 20.7746L14.2199 25.0704C14.6484 25.3187 15.3496 25.3187 15.7791 25.0704L23.2208 20.7746C23.4346 20.651 23.6291 20.4372 23.771 20.1921C23.9128 19.9479 24 19.6723 24 19.4241V10.8324C24 10.5842 23.9128 10.3086 23.771 10.0645ZM21 15.4616H20.3333V16.1282H19.6677V15.4616H19.001V14.7949H19.6677V14.1283H20.3333V14.7949H21V15.4616ZM23.5005 15.4616H22.8338V16.1282H22.1671V15.4616H21.5015V14.7949H22.1671V14.1283H22.8338V14.7949H23.5005V15.4616Z" fill="white"/>
</svg>
