<svg width="16" height="16" viewBox="0 0 16 16" fill="none" xmlns="http://www.w3.org/2000/svg">
<path d="M13.3333 0H2.66667C1.95942 0 1.28115 0.280952 0.781049 0.781049C0.280952 1.28115 0 1.95942 0 2.66667V13.3333C0 14.0406 0.280952 14.7189 0.781049 15.219C1.28115 15.719 1.95942 16 2.66667 16H13.3333C14.0406 16 14.7189 15.719 15.219 15.219C15.719 14.7189 16 14.0406 16 13.3333V2.66667C16 1.95942 15.719 1.28115 15.219 0.781049C14.7189 0.280952 14.0406 0 13.3333 0ZM4.44444 3.55556C4.70815 3.55556 4.96594 3.63375 5.1852 3.78026C5.40447 3.92677 5.57537 4.13501 5.67628 4.37864C5.7772 4.62228 5.80361 4.89037 5.75216 5.14901C5.70071 5.40765 5.57372 5.64523 5.38725 5.8317C5.20078 6.01817 4.96321 6.14516 4.70457 6.1966C4.44592 6.24805 4.17783 6.22165 3.9342 6.12073C3.69057 6.01981 3.48233 5.84891 3.33582 5.62965C3.18931 5.41038 3.11111 5.1526 3.11111 4.88889C3.11111 4.53527 3.25159 4.19613 3.50164 3.94608C3.75168 3.69603 4.09082 3.55556 4.44444 3.55556V3.55556ZM14.2222 13.1822C14.2419 13.4379 14.1593 13.691 13.9927 13.8859C13.8261 14.0809 13.589 14.2018 13.3333 14.2222H2.66667L9.39556 8.16C9.50854 8.05694 9.65596 7.9998 9.80889 7.9998C9.96182 7.9998 10.1092 8.05694 10.2222 8.16L14.2222 12.1422V13.1822Z" fill="white"/>
</svg>
