<svg width="30" height="30" viewBox="0 0 30 30" fill="none" xmlns="http://www.w3.org/2000/svg">
<rect width="30" height="30" rx="5" fill="#4630EB"/>
<path d="M6.24609 17.9535L11.5434 7.85927L16.7548 5.06604L18.304 5.84829L13.1239 8.77481L18.4766 24.8627L16.7548 23.8612L12.7488 14.6279L7.49012 18.6185L6.24609 17.9535Z" fill="white"/>
<path d="M21.7316 15.3395C22.8121 15.3395 23.688 14.5233 23.688 13.5164C23.688 12.5096 22.8121 11.6934 21.7316 11.6934C20.6512 11.6934 19.7753 12.5096 19.7753 13.5164C19.7753 14.5233 20.6512 15.3395 21.7316 15.3395Z" fill="white"/>
<path d="M23.1592 12.7029C22.9832 12.4531 22.7456 12.2531 22.4694 12.1223C22.1933 11.9915 21.888 11.9343 21.5832 11.9563C21.2785 11.9783 20.9846 12.0787 20.7301 12.2478C20.4756 12.4169 20.2691 12.6489 20.1307 12.9214C19.9949 13.2146 19.9514 13.5422 20.0059 13.8607C20.0604 14.1792 20.2104 14.4737 20.4359 14.7051C21.0547 14.7543 21.6705 14.5791 22.1706 14.2114C22.6707 13.8437 23.0217 13.3082 23.1592 12.7029V12.7029ZM17.8976 5.81994L16.7708 5.20157L11.8647 7.93216L12.2558 8.14338L12.9987 8.53451L14.3462 7.78649L17.8991 5.80683L17.8976 5.81994ZM18.3514 5.63202C18.3806 5.63915 18.4074 5.65368 18.4294 5.67423C18.4513 5.69477 18.4676 5.72062 18.4767 5.74929L20.1198 10.5979C20.1366 10.6365 20.1378 10.68 20.1231 10.7194C20.1084 10.7588 20.079 10.791 20.0412 10.8092C19.4141 11.1533 18.9216 11.6991 18.6433 12.358C18.3651 13.017 18.3174 13.7506 18.508 14.44C18.7351 15.1905 19.2179 15.8377 19.8725 16.2693C20.5271 16.7009 21.3122 16.8897 22.0915 16.8028C22.1341 16.8001 22.1766 16.8107 22.213 16.8331C22.2494 16.8556 22.2779 16.8887 22.2947 16.9281L23.9925 21.9049C24.0038 21.9449 24.0023 21.9874 23.9884 22.0266C23.9744 22.0657 23.9486 22.0996 23.9145 22.1234L18.6952 25.1745C18.6706 25.1852 18.644 25.1907 18.6172 25.1905C18.5691 25.1996 18.5193 25.1913 18.4767 25.1672L16.6456 24.0164C16.612 23.9991 16.5845 23.9719 16.5669 23.9385L12.9914 15.7153L7.5448 18.8138C7.53254 18.8205 7.51959 18.8258 7.50619 18.8298C7.47888 18.8424 7.44895 18.8482 7.41891 18.8468C7.38887 18.8454 7.35961 18.8368 7.33357 18.8218L6.09537 18.1175C6.05476 18.0958 6.02397 18.0595 6.00934 18.0159C5.99471 17.9722 5.99735 17.9247 6.01671 17.8829L11.3089 7.8433C11.3285 7.80881 11.3586 7.7815 11.3949 7.76537L16.6689 4.82355C16.6978 4.80812 16.7301 4.80005 16.7628 4.80005C16.7956 4.80005 16.8279 4.80812 16.8568 4.82355L18.3514 5.63202ZM11.8093 8.32839L11.5515 8.19583L6.453 17.9062L7.38456 18.4306L11.7816 12.6767C11.8035 12.6503 11.8312 12.6295 11.8626 12.6158C11.8939 12.6021 11.9281 12.596 11.9623 12.598C11.9955 12.6041 12.027 12.6179 12.054 12.6383C12.0811 12.6586 12.103 12.685 12.1181 12.7153L16.907 23.7484L18.1868 24.5386L13.046 9.5105L12.8275 8.88412L11.8028 8.3211L11.8093 8.32839ZM19.6966 14.1188C19.5799 13.6857 19.613 13.2259 19.7906 12.814C19.9682 12.4021 20.2798 12.0624 20.6748 11.85C21.0758 11.6257 21.5378 11.5351 21.9938 11.5915C22.4498 11.6478 22.8759 11.8481 23.2102 12.1632C23.3978 12.3432 23.5481 12.5584 23.6525 12.7965C23.7569 13.0346 23.8133 13.291 23.8186 13.5509C23.8239 13.8109 23.7779 14.0693 23.6833 14.3115C23.5886 14.5536 23.4472 14.7748 23.267 14.9622C23.2491 14.9812 23.2301 15.0001 23.2102 15.019C22.948 15.2701 22.6261 15.4502 22.2749 15.5423C21.9238 15.6343 21.5549 15.6354 21.2033 15.5453C20.8516 15.4552 20.5287 15.2769 20.2651 15.0273C20.0015 14.7777 19.8058 14.465 19.6966 14.1188V14.1188Z" fill="#181818"/>
</svg>
