<svg width="30" height="30" viewBox="0 0 30 30" fill="none" xmlns="http://www.w3.org/2000/svg">
<rect width="30" height="30" rx="5" fill="white"/>
<path d="M17.9998 18.3331C19.8408 18.3331 21.3331 16.8408 21.3331 14.9998C21.3331 13.1589 19.8408 11.6665 17.9998 11.6665C16.1589 11.6665 14.6665 13.1589 14.6665 14.9998C14.6665 16.8408 16.1589 18.3331 17.9998 18.3331Z" fill="#19BCFE"/>
<path fill-rule="evenodd" clip-rule="evenodd" d="M11.3333 25C12.2174 25 13.0652 24.6488 13.6903 24.0237C14.3154 23.3986 14.6666 22.5507 14.6666 21.6667V18.3334H11.3333C10.4493 18.3334 9.60142 18.6846 8.97631 19.3097C8.35119 19.9348 8 20.7826 8 21.6667C8 22.5507 8.35119 23.3986 8.97631 24.0237C9.60142 24.6488 10.4493 25 11.3333 25V25Z" fill="#09CF83"/>
<path fill-rule="evenodd" clip-rule="evenodd" d="M11.3333 18.3331H14.6666V11.6665H11.3333C10.4493 11.6665 9.60142 12.0177 8.97631 12.6428C8.35119 13.2679 8 14.1158 8 14.9998C8 15.8839 8.35119 16.7317 8.97631 17.3568C9.60142 17.9819 10.4493 18.3331 11.3333 18.3331V18.3331Z" fill="#A259FF"/>
<path fill-rule="evenodd" clip-rule="evenodd" d="M11.3333 11.6666H14.6666V5H11.3333C10.4493 5 9.60142 5.35119 8.97631 5.97631C8.35119 6.60142 8 7.44926 8 8.33331C8 9.21736 8.35119 10.0652 8.97631 10.6903C9.60142 11.3154 10.4493 11.6666 11.3333 11.6666V11.6666Z" fill="#F24E1E"/>
<path fill-rule="evenodd" clip-rule="evenodd" d="M17.9998 11.6666H14.6665V5H17.9998C18.8839 5 19.7317 5.35119 20.3568 5.97631C20.9819 6.60142 21.3331 7.44926 21.3331 8.33331C21.3331 9.21736 20.9819 10.0652 20.3568 10.6903C19.7317 11.3154 18.8839 11.6666 17.9998 11.6666Z" fill="#FF7262"/>
</svg>
