<svg width="30" height="30" viewBox="0 0 30 30" fill="none" xmlns="http://www.w3.org/2000/svg">
<rect width="30" height="30" rx="5" fill="#F7664A"/>
<path d="M6 5L7.61919 23.3165L14.9988 25.4116L22.3489 23.3165L24 5H6ZM20.5972 9.34483L20.4795 10.5028L20.4378 10.9812H11.8168L12.018 13.2922H20.2391L20.1581 13.8884L19.638 19.8303L19.5963 20.2278L15.0086 21.4937V21.501H14.9791L14.9718 21.5035V21.501H14.9693L10.3424 20.2253L10.0627 16.6778H12.2977L12.4571 18.4736L14.9693 19.1532H14.9791L17.4815 18.4761L17.7612 15.5664H14.9718V15.564H9.94494L9.38558 9.34483L9.34387 8.74867H20.6365L20.5972 9.34483V9.34483Z" fill="white"/>
</svg>
