<svg width="30" height="30" viewBox="0 0 30 30" fill="none" xmlns="http://www.w3.org/2000/svg">
<rect width="30" height="30" rx="5" fill="#242323"/>
<path d="M22.5709 8.4997C22.47 8.10338 21.9801 7.78003 21.4811 7.78003H8.51984C8.01995 7.78003 7.52996 8.10338 7.42998 8.4997L7.24894 9.58145H22.7511L22.5709 8.4997V8.4997ZM23.4779 10.4822H6.52206C6.44931 10.4822 6.37737 10.4975 6.31085 10.5269C6.24433 10.5564 6.1847 10.5994 6.13578 10.6533C6.08685 10.7071 6.04971 10.7706 6.02673 10.8396C6.00376 10.9086 5.99546 10.9817 6.00235 11.0541L6.83371 21.5645C6.85027 21.736 6.9301 21.8953 7.05765 22.0112C7.1852 22.127 7.35132 22.1913 7.52365 22.1914H22.4763C22.6487 22.1913 22.8148 22.127 22.9423 22.0112C23.0699 21.8953 23.1497 21.736 23.1663 21.5645L23.9976 11.0541C24.0045 10.9817 23.9962 10.9086 23.9733 10.8396C23.9503 10.7706 23.9131 10.7071 23.8642 10.6533C23.8153 10.5994 23.7557 10.5564 23.6891 10.5269C23.6226 10.4975 23.5507 10.4822 23.4779 10.4822V10.4822ZM17.1964 13.5221C17.4205 13.5221 17.6353 13.6111 17.7938 13.7695C17.9522 13.928 18.0412 14.1429 18.0412 14.3669C18.0412 14.591 17.9522 14.8059 17.7938 14.9643C17.6353 15.1228 17.4205 15.2118 17.1964 15.2118C16.9723 15.2118 16.7574 15.1228 16.599 14.9643C16.4405 14.8059 16.3515 14.591 16.3515 14.3669C16.3515 14.1429 16.4405 13.928 16.599 13.7695C16.7574 13.6111 16.9723 13.5221 17.1964 13.5221V13.5221ZM10.9473 18.5886L13.1864 13.4419L15.7327 17.5635L17.916 16.4791L19.0536 18.5886H10.9473Z" fill="white"/>
</svg>
