<svg width="30" height="30" viewBox="0 0 30 30" fill="none" xmlns="http://www.w3.org/2000/svg">
<path d="M0 5C0 2.23858 2.23858 0 5 0H25C27.7614 0 30 2.23858 30 5V25C30 27.7614 27.7614 30 25 30H5C2.23858 30 0 27.7614 0 25V5Z" fill="#F5DE19"/>
<path d="M17.6807 22.5321C18.2906 22.1769 19.0696 22.4457 19.6282 22.8772C19.7081 22.939 19.7916 22.9967 19.8782 23.05C20.3382 23.3331 20.8688 23.4804 21.4089 23.475C22.4989 23.475 23.1959 22.93 23.1959 22.175C23.1959 21.275 22.4799 20.953 21.2799 20.428L20.6219 20.146C18.7219 19.337 17.4619 18.324 17.4619 16.182C17.4619 14.209 18.9619 12.706 21.3149 12.706C22.0767 12.651 22.8377 12.8215 23.5031 13.1962C23.8626 13.3986 24.1855 13.6557 24.4613 13.9565C24.8624 14.3938 24.6753 15.057 24.1753 15.3766L23.9098 15.5464C23.4379 15.8481 22.7968 15.6122 22.331 15.3011V15.3011C22.0294 15.0997 21.6736 14.9946 21.3109 15C21.1527 14.9842 20.9929 15.0015 20.8417 15.0508C20.6905 15.1001 20.5513 15.1804 20.4328 15.2865C20.3144 15.3927 20.2194 15.5223 20.1538 15.6672C20.0882 15.8121 20.0535 15.969 20.0519 16.128C20.0519 16.917 20.5409 17.237 21.6699 17.728L22.3279 18.01C24.5639 18.969 25.8279 19.946 25.8279 22.143C25.8279 24.512 23.9669 25.81 21.4679 25.81C20.4943 25.8721 19.5234 25.651 18.6726 25.1735C18.1628 24.8874 17.7092 24.5166 17.3297 24.0796C16.9022 23.5873 17.1172 22.8603 17.6807 22.5321V22.5321ZM8.36067 22.8024C8.99154 22.4198 9.72826 22.7302 10.3173 23.1745C10.5503 23.3503 10.8336 23.456 11.2069 23.456C12.0709 23.456 12.6169 23.118 12.6169 21.803V14.1715C12.6169 13.445 13.2059 12.856 13.9324 12.856V12.856C14.659 12.856 15.2479 13.445 15.2479 14.1715V21.838C15.2479 24.562 13.6479 25.802 11.3189 25.802C10.4957 25.847 9.6781 25.6419 8.97363 25.2135C8.60093 24.9869 8.26913 24.7034 7.98909 24.3754C7.56048 23.8733 7.79622 23.1447 8.36067 22.8024V22.8024Z" fill="white"/>
</svg>
