<svg width="30" height="30" viewBox="0 0 30 30" fill="none" xmlns="http://www.w3.org/2000/svg">
<rect width="30" height="30" rx="5" fill="#21609B"/>
<path d="M7.14431 10.4014C5.54874 12.6925 5.74812 15.6696 6.96521 18.1016C6.9945 18.163 7.02379 18.2187 7.05307 18.2745C7.07053 18.3128 7.09137 18.3505 7.11165 18.386C7.12179 18.4074 7.13365 18.4279 7.14713 18.4474C7.1674 18.4885 7.18824 18.5234 7.20852 18.5617L7.32566 18.7611C7.34594 18.7994 7.36959 18.8343 7.39325 18.8698C7.43436 18.9402 7.48393 19.0106 7.52504 19.081C7.54532 19.1103 7.56334 19.1396 7.58361 19.1688C7.65683 19.2832 7.73624 19.3947 7.81847 19.5034C7.87705 19.5828 7.93562 19.6617 7.99757 19.7411C8.01785 19.7675 8.0415 19.7968 8.06234 19.8261L8.22961 20.0283C8.24989 20.052 8.26791 20.0784 8.291 20.1015C8.36422 20.1894 8.44363 20.2778 8.51967 20.3628C8.51967 20.3657 8.52248 20.3657 8.52248 20.3685C8.61935 20.489 8.72467 20.6 8.84238 20.7002C8.90377 20.7616 8.96291 20.8236 9.02712 20.8821L9.10315 20.9553C9.18538 21.0348 9.26761 21.1108 9.35547 21.1868C9.35828 21.1868 9.35828 21.1868 9.3611 21.1896L9.40221 21.2251C9.47825 21.2927 9.55766 21.3603 9.63707 21.4217L9.73113 21.5011C9.79252 21.5512 9.8601 21.6008 9.92487 21.6509L10.0274 21.7303C10.0978 21.7833 10.171 21.8328 10.2414 21.8858C10.2679 21.9032 10.2943 21.9241 10.3236 21.9387L10.3439 21.9562L10.5551 22.097L10.6458 22.1555C10.7545 22.2259 10.866 22.2935 10.9741 22.3611C11.0062 22.3758 11.0355 22.3932 11.0648 22.4112C11.147 22.458 11.2321 22.5053 11.3143 22.5492C11.3582 22.5757 11.405 22.596 11.4523 22.6196C11.508 22.6517 11.5666 22.681 11.6252 22.7137C11.6407 22.717 11.6556 22.7229 11.6691 22.7311L11.7395 22.7666C11.8302 22.8105 11.9243 22.8545 12.0211 22.8956C12.0386 22.9046 12.0594 22.9102 12.0797 22.9221C12.1884 22.9688 12.2937 23.0161 12.4081 23.0601C12.4317 23.0657 12.4582 23.0803 12.4841 23.0893C12.5866 23.1276 12.6925 23.1654 12.795 23.2037L12.8305 23.2155C12.9476 23.2566 13.0591 23.2915 13.1768 23.3298C13.2033 23.3355 13.2326 23.3473 13.2591 23.3535C13.3796 23.3918 13.4939 23.4329 13.6139 23.456C21.3197 24.8612 23.5579 18.8242 23.5579 18.8242C21.6773 21.2736 18.3392 21.919 15.1773 21.2003C15.0602 21.1739 14.9459 21.1356 14.8253 21.1007C14.6845 21.0595 14.5409 21.0128 14.4001 20.9655L14.3534 20.948C14.2537 20.9125 14.154 20.8748 14.0543 20.8365C14.0278 20.8247 13.9986 20.8162 13.9721 20.8044C13.8628 20.7613 13.7542 20.7162 13.6465 20.6692C13.6229 20.6602 13.6054 20.649 13.5818 20.6399C13.4911 20.5988 13.3999 20.5577 13.3092 20.5138C13.2822 20.5012 13.2557 20.4875 13.2298 20.4727C13.1594 20.4406 13.089 20.4023 13.0186 20.3668C12.9718 20.3431 12.9245 20.32 12.8806 20.2964L12.6255 20.1556C12.5981 20.1372 12.5697 20.1205 12.5404 20.1055C12.4289 20.0379 12.3202 19.9703 12.2121 19.9033C12.1828 19.8858 12.1535 19.865 12.1242 19.8447C12.0448 19.7945 11.9665 19.7427 11.8893 19.6893C11.8632 19.6717 11.8379 19.6531 11.8133 19.6335C11.7372 19.5833 11.6628 19.5305 11.5903 19.4752C11.5582 19.4488 11.5255 19.4251 11.4906 19.3992C11.4258 19.3491 11.3588 19.2995 11.294 19.2438L11.2034 19.1734C11.1183 19.1058 11.0361 19.0354 10.9539 18.9621C10.9448 18.9531 10.9364 18.9475 10.9246 18.9385L10.6666 18.7036L10.5906 18.6332C10.5292 18.5685 10.4672 18.5099 10.403 18.4485L10.3298 18.3725C10.2504 18.2936 10.1732 18.2124 10.0983 18.1292L10.0865 18.1173C10.0071 18.0323 9.93106 17.9411 9.85165 17.8532C9.83138 17.8295 9.81335 17.8031 9.79308 17.78L9.62299 17.5716C9.53549 17.461 9.45042 17.3485 9.36786 17.2342C7.61346 14.8406 6.97985 11.5374 8.38224 8.82722L7.14431 10.4014ZM12.0898 8.47127C10.9341 10.1316 10.9983 12.349 11.8989 14.1034C12.0487 14.3968 12.2188 14.6812 12.4064 14.9538C12.5793 15.2005 12.7702 15.4934 13.0017 15.6933C13.0811 15.784 13.1689 15.8724 13.2596 15.9631L13.3272 16.0307C13.4123 16.1129 13.5001 16.1951 13.5914 16.274L13.6032 16.2858C13.7029 16.3736 13.8054 16.4587 13.9141 16.5409C13.9377 16.5584 13.9608 16.5792 13.9845 16.5967C14.0904 16.6761 14.1957 16.7549 14.3044 16.8315L14.3162 16.8405C14.3629 16.8726 14.4131 16.9053 14.466 16.9374C14.4863 16.9521 14.5099 16.9695 14.5336 16.9813C14.613 17.0343 14.6919 17.081 14.7713 17.1312C14.7859 17.1368 14.7949 17.143 14.8068 17.1486C14.8743 17.1897 14.9504 17.228 15.0208 17.2658C15.0444 17.2804 15.0675 17.2922 15.094 17.3069C15.1441 17.3305 15.1937 17.357 15.2404 17.3829L15.2669 17.3919C15.3666 17.4421 15.4691 17.4888 15.5722 17.5355C15.6778 17.5818 15.7845 17.6258 15.8921 17.6673C15.9304 17.6792 15.9653 17.6938 16.0008 17.7056C16.0768 17.7349 16.159 17.7614 16.2356 17.7879L16.3381 17.82C16.4496 17.8554 16.5611 17.8994 16.6755 17.9168C22.6246 18.9024 24 14.3236 24 14.3236C22.7593 16.1072 20.3628 16.9577 17.8047 16.2948C17.6904 16.2655 17.5789 16.23 17.4673 16.1951C17.4319 16.1861 17.3998 16.1748 17.3648 16.1658C17.2888 16.1365 17.2066 16.1101 17.1334 16.0836L17.0247 16.0425C16.9396 16.007 16.8546 15.9777 16.7724 15.94C16.7459 15.9281 16.7222 15.9225 16.7048 15.9107C16.5994 15.8646 16.4948 15.8167 16.3911 15.7671L16.2356 15.6848L16.1478 15.6409C16.08 15.6061 16.0135 15.5689 15.9484 15.5294C15.9325 15.5212 15.9169 15.5124 15.9016 15.5029C15.8222 15.4528 15.7406 15.4061 15.664 15.3531C15.6385 15.3393 15.614 15.3237 15.5907 15.3064L15.4353 15.2067C15.3266 15.1306 15.2213 15.0484 15.1126 14.9718C15.0907 14.9505 15.0671 14.9309 15.0422 14.9132C13.9186 14.0273 13.0327 12.8187 12.6102 11.4518C12.1676 10.0291 12.2673 8.43354 13.0298 7.13985L12.0898 8.47127ZM16.2497 7.02833C15.5693 8.02859 15.5018 9.27215 15.9709 10.3755C16.4693 11.5458 17.4904 12.4672 18.6782 12.9009C18.7284 12.9212 18.7751 12.9364 18.8247 12.9538L18.8894 12.9741C18.9599 12.9944 19.0303 13.0209 19.1007 13.0389C22.3858 13.6725 23.2746 11.3493 23.5156 11.0091C22.7322 12.1327 21.4211 12.4025 19.8109 12.0122C19.5182 11.9347 19.2334 11.8304 18.9599 11.7007C18.6751 11.561 18.4039 11.3951 18.15 11.2051C16.7065 10.1108 15.8149 8.02803 16.7566 6.32996L16.2497 7.02833Z" fill="white"/>
</svg>
