<svg width="30" height="30" viewBox="0 0 30 30" fill="none" xmlns="http://www.w3.org/2000/svg">
<rect width="30" height="30" rx="5" fill="#76D04B"/>
<path d="M8.99386 6.745C9.39186 6.745 9.77357 6.9031 10.055 7.18453C10.3364 7.46597 10.4945 7.84767 10.4945 8.24568V21.7518C10.4945 22.1498 10.3364 22.5315 10.055 22.8129C9.77357 23.0944 9.39186 23.2525 8.99386 23.2525H7.50068C7.10268 23.2525 6.72097 23.0944 6.43954 22.8129C6.15811 22.5315 6 22.1498 6 21.7518V8.24568C6 7.84767 6.15811 7.46597 6.43954 7.18453C6.72097 6.9031 7.10268 6.745 7.50068 6.745H8.99386ZM14.2462 6.745C14.6442 6.745 15.026 6.9031 15.3074 7.18453C15.5888 7.46597 15.7469 7.84767 15.7469 8.24568V21.7518C15.7469 22.1498 15.5888 22.5315 15.3074 22.8129C15.026 23.0944 14.6442 23.2525 14.2462 23.2525H12.7493C12.3513 23.2525 11.9696 23.0944 11.6882 22.8129C11.4067 22.5315 11.2486 22.1498 11.2486 21.7518V8.24568C11.2486 7.84767 11.4067 7.46597 11.6882 7.18453C11.9696 6.9031 12.3513 6.745 12.7493 6.745H14.2462V6.745ZM21.0593 9.40345L23.9556 21.021C24.0516 21.4072 23.9904 21.8158 23.7855 22.1569C23.5805 22.4981 23.2485 22.744 22.8624 22.8405L21.3895 23.2082C21.1982 23.2558 20.9995 23.2653 20.8045 23.2361C20.6096 23.2069 20.4224 23.1396 20.2535 23.038C20.0846 22.9364 19.9373 22.8025 19.8202 22.644C19.703 22.4855 19.6182 22.3055 19.5707 22.1142L16.6743 10.4967C16.6266 10.3055 16.617 10.1067 16.646 9.91182C16.6751 9.71689 16.7423 9.5296 16.8437 9.36064C16.9452 9.19167 17.0789 9.04434 17.2373 8.92707C17.3957 8.80979 17.5756 8.72486 17.7668 8.67712L19.2398 8.31021C19.431 8.26247 19.6298 8.25288 19.8248 8.28199C20.0197 8.3111 20.2071 8.37834 20.376 8.47987C20.545 8.58139 20.6923 8.71521 20.8096 8.87368C20.9268 9.03215 21.0117 9.21217 21.0593 9.40345V9.40345Z" fill="white"/>
</svg>
