<svg width="30" height="30" viewBox="0 0 30 30" fill="none" xmlns="http://www.w3.org/2000/svg">
<rect width="30" height="30" rx="5" fill="white"/>
<path d="M12.488 10.4498L12.5458 11.7803L11.6202 13.5158L10.174 16.3504L9.88477 18.7222L10.926 22.0774L13.2979 23.408H16.8845L20.2397 20.8626L21.7438 16.871L18.2729 12.6481L17.2894 10.2762L12.488 10.4498Z" fill="#ECEFF1"/>
<path d="M20.7027 13.7472C19.7771 12.4166 19.025 11.6068 18.6201 9.92914C18.2151 8.25152 18.7358 8.71431 18.3887 7.26808C18.2151 6.51605 17.9259 5.9954 17.6367 5.59046C17.2896 5.18552 16.8846 4.95412 16.6532 4.89627C16.1326 4.60703 14.9178 4.14424 13.4137 4.95412C11.8518 5.76401 12.0253 7.49948 12.3145 11.0283C12.3145 11.2597 12.2567 11.5489 12.141 11.7803C11.9096 12.3009 11.5047 12.7637 11.1576 13.1687C10.7526 13.7472 10.3477 14.3257 10.0584 14.962C9.36424 16.2925 8.7279 17.9702 8.90145 18.6065C9.1907 18.5486 12.8352 24.1022 12.8352 24.2178C13.0666 24.16 14.05 24.16 14.9178 24.16C16.1326 24.1022 16.8268 24.0443 17.8102 24.2757C17.8102 24.1021 17.7524 23.9286 17.7524 23.7551C17.7524 23.408 17.8102 23.1187 17.8681 22.7138C17.9259 22.4245 17.9838 22.1353 18.0416 21.7882C17.4631 22.3088 16.4218 22.8873 15.4384 23.0609C14.5707 23.2344 13.1244 22.9452 12.4302 22.0774C12.4881 22.0774 12.6038 22.0774 12.6616 22.0196C12.8352 21.9617 13.0087 21.9039 13.0666 21.7882C13.2401 21.4989 13.1244 21.2097 13.0087 21.0362C12.893 20.8626 12.0253 20.2263 11.6204 19.8792C11.2154 19.5321 10.984 19.3585 10.7526 19.1271L10.2898 18.6643C10.1741 18.5486 10.1163 18.4329 10.0584 18.3751C9.94273 18.0859 9.88489 17.7388 9.94273 17.276C10.0006 16.6396 10.232 16.119 10.5212 15.5405C10.6369 15.3091 10.9262 14.8463 10.9262 14.8463C10.9262 14.8463 9.94273 17.276 10.4634 18.028C10.4634 18.028 10.5212 17.276 10.7526 16.5239C10.9262 16.0033 11.2154 15.2512 11.5625 14.8463C11.9096 14.4414 12.7773 12.9373 12.8352 12.0117C12.8352 11.6068 12.893 11.2018 12.893 10.9126C12.6616 10.6812 16.7111 10.1027 16.9425 10.739C17.0003 10.9704 17.8102 13.053 18.273 14.1521C18.5044 14.6728 18.7936 15.1356 18.9672 15.714C19.1407 16.3504 19.2564 17.2181 19.2564 18.0859C19.2564 18.2594 19.2564 18.5486 19.1986 18.8379C19.3143 18.8379 21.5704 16.4082 18.9093 14.3835C18.9093 14.3835 20.5291 15.1356 20.587 16.6396C20.6448 17.8545 20.1242 18.8379 20.0085 19.0114C20.0663 19.0114 21.2233 19.5321 21.2811 19.5321C21.5125 19.5321 21.9753 19.3585 21.9753 19.3585C22.0332 19.185 22.2067 18.7222 22.2067 18.5486C22.6117 17.2181 21.6282 15.0777 20.7027 13.7472V13.7472Z" fill="#263238"/>
<path d="M13.3558 9.9292C13.7711 9.9292 14.1078 9.4112 14.1078 8.77222C14.1078 8.13323 13.7711 7.61523 13.3558 7.61523C12.9405 7.61523 12.6038 8.13323 12.6038 8.77222C12.6038 9.4112 12.9405 9.9292 13.3558 9.9292Z" fill="#ECEFF1"/>
<path d="M15.959 10.0448C16.5022 10.0448 16.9425 9.44915 16.9425 8.71432C16.9425 7.97949 16.5022 7.38379 15.959 7.38379C15.4159 7.38379 14.9756 7.97949 14.9756 8.71432C14.9756 9.44915 15.4159 10.0448 15.959 10.0448Z" fill="#ECEFF1"/>
<path d="M13.7764 8.85121C13.7283 8.47085 13.5095 8.18524 13.2876 8.21328C13.0657 8.24133 12.9248 8.57241 12.9729 8.95277C13.021 9.33313 13.2398 9.61874 13.4617 9.5907C13.6836 9.56265 13.8245 9.23157 13.7764 8.85121Z" fill="#212121"/>
<path d="M15.9011 9.69768C16.2206 9.69768 16.4796 9.36098 16.4796 8.94564C16.4796 8.5303 16.2206 8.1936 15.9011 8.1936C15.5816 8.1936 15.3226 8.5303 15.3226 8.94564C15.3226 9.36098 15.5816 9.69768 15.9011 9.69768Z" fill="#212121"/>
<path d="M23.595 21.6724C23.3637 21.5567 22.9587 21.3832 22.6116 20.8625C22.4381 20.5733 22.4959 19.7634 22.2067 19.4163C22.0331 19.1849 21.8017 19.3006 21.7439 19.3006C21.2232 19.4163 20.0084 20.2262 19.1985 19.3006C19.0828 19.1849 18.9093 19.0114 18.62 19.0114C18.3308 19.0114 18.2151 19.1271 18.0994 19.3584C17.9837 19.5898 17.9837 19.7634 17.9837 20.3419C17.9837 20.8047 17.9837 21.3253 17.9258 21.7303C17.8101 22.7137 17.6366 23.2922 17.6366 23.8707C17.6366 24.507 17.8101 24.912 18.0415 25.0855C18.2151 25.259 18.5043 25.3747 19.1407 25.3747C19.777 25.3747 20.182 25.1434 20.5869 24.7384C20.8761 24.4492 21.1075 24.3335 21.9174 23.755C22.5538 23.35 23.5372 22.8294 23.7107 22.6558C23.8264 22.5401 24 22.4823 24 22.1352C24 21.846 23.7686 21.7303 23.595 21.6724V21.6724Z" fill="#FFC107"/>
<path d="M11.9674 21.846C11.3889 20.9204 11.3311 20.7468 10.9261 20.1683C10.579 19.5899 9.82699 18.4907 9.36419 18.4907C9.0171 18.4907 8.84355 18.6643 8.61216 18.8957C8.38076 19.1271 8.14936 19.6477 7.74442 19.9369C7.39733 20.2262 6.41389 20.1683 6.1825 20.5154C5.9511 20.8625 6.41389 21.3832 6.41389 22.2509C6.41389 22.598 6.12465 22.8294 6.0668 23.0608C6.00895 23.35 5.9511 23.5236 6.0668 23.755C6.29819 24.1021 6.58744 24.2178 8.55431 24.6227C9.59559 24.8541 10.579 25.4326 11.2154 25.4905C11.8517 25.5483 12.9508 25.4905 12.9508 23.9285C13.0087 23.0029 12.488 22.7716 11.9674 21.846Z" fill="#FFC107"/>
<path d="M13.0665 11.3754C12.7194 11.144 12.4302 10.9126 12.4302 10.5655C12.4302 10.2184 12.6616 10.1027 13.0087 9.81346C13.0665 9.75561 13.7029 9.17712 14.3392 9.17712C14.9755 9.17712 15.7276 9.58207 16.0168 9.69777C16.5375 9.81346 17.0581 9.92916 17.0002 10.3341C16.9424 10.9126 16.8846 11.0283 16.3061 11.3175C15.9011 11.4332 15.1491 12.0696 14.6284 12.0696C14.397 12.0696 14.0499 12.0696 13.8186 12.0117C13.645 11.9539 13.3558 11.6646 13.0665 11.3754Z" fill="#FFC107"/>
<path d="M12.9508 10.9126C13.0665 11.0282 13.2401 11.1439 13.4136 11.2018C13.5293 11.2596 13.7029 11.3175 13.7029 11.3175H14.2235C14.5127 11.3175 14.9177 11.2018 15.3226 10.9704C15.7276 10.7969 15.7854 10.6812 16.0747 10.5655C16.3639 10.3919 16.6532 10.2184 16.5375 10.1605C16.4218 10.1027 16.3061 10.1605 15.9011 10.3919C15.554 10.6233 15.2648 10.739 14.9177 10.9126C14.7441 10.9704 14.5127 11.0861 14.3392 11.0861H13.8186C13.645 11.0861 13.5293 11.0282 13.3558 10.9704C13.2401 10.9126 13.1822 10.8547 13.1244 10.8547C13.0087 10.7969 12.7773 10.5655 12.6616 10.5076C12.6616 10.5076 12.5459 10.5076 12.6037 10.5655L12.9508 10.9126Z" fill="#634703"/>
<path d="M14.6863 9.63981C14.7441 9.7555 14.8598 9.7555 14.9177 9.81335C14.9755 9.8712 15.0334 9.8712 15.0334 9.8712C15.0912 9.81335 15.0334 9.69765 14.9755 9.69765C14.9755 9.58196 14.6863 9.58196 14.6863 9.63981V9.63981Z" fill="#634703"/>
<path d="M13.7607 9.75558C13.7607 9.81343 13.8764 9.87128 13.8764 9.81343C13.9343 9.75558 13.9921 9.69773 14.05 9.69773C14.1657 9.63988 14.1078 9.58203 13.9343 9.58203C13.8186 9.63988 13.8186 9.69773 13.7607 9.75558V9.75558Z" fill="#634703"/>
<path d="M19.372 19.9949V20.1684C19.4877 20.3998 19.777 20.4577 20.0084 20.4577C20.3555 20.4577 20.7025 20.2263 20.8761 19.9949C20.8761 19.937 20.9339 19.8792 20.9918 19.8213C21.1075 19.6478 21.1653 19.5321 21.2232 19.4742C21.2232 19.4742 21.1653 19.4164 21.1653 19.3586C21.1075 19.2429 20.9339 19.1272 20.7025 19.0693C20.529 19.0115 20.2398 18.9536 20.1241 18.9536C19.6034 18.8958 19.3142 19.0693 19.1406 19.2429C19.1406 19.2429 19.1985 19.2429 19.1985 19.3007C19.3142 19.4164 19.372 19.5321 19.372 19.7056C19.4299 19.8213 19.372 19.8792 19.372 19.9949V19.9949Z" fill="#455A64"/>
</svg>
