<svg width="30" height="30" viewBox="0 0 30 30" fill="none" xmlns="http://www.w3.org/2000/svg">
<rect width="30" height="30" rx="5" fill="white"/>
<path d="M22.5799 19.8159C21.6005 19.7915 20.8415 19.8895 20.2049 20.1587C20.0212 20.2321 19.7274 20.2322 19.7029 20.4648C19.8008 20.5628 19.8131 20.722 19.8988 20.8566C20.0459 21.1014 20.3028 21.432 20.5354 21.6034C20.7924 21.7993 21.0496 21.9951 21.3188 22.1665C21.7964 22.4603 22.3351 22.6317 22.8003 22.9255C23.0697 23.0968 23.3388 23.3173 23.6082 23.5009C23.7429 23.5987 23.8285 23.758 24 23.8192V23.7825C23.9142 23.6723 23.8897 23.5132 23.8041 23.3907C23.6818 23.2683 23.5592 23.1581 23.4368 23.0357C23.0818 22.5583 22.6411 22.142 22.1637 21.7993C21.7719 21.5299 20.9149 21.1627 20.7558 20.7096C20.7558 20.7096 20.7435 20.6975 20.7313 20.6852C21.0006 20.6607 21.3188 20.5628 21.576 20.4893C21.9922 20.3791 22.3717 20.4036 22.8003 20.2934C22.9961 20.2445 23.192 20.1832 23.3878 20.122V20.0119C23.1676 19.7915 23.0084 19.4977 22.7758 19.2896C22.1514 18.7508 21.4658 18.2245 20.7558 17.7838C20.3762 17.5389 19.8865 17.3797 19.4825 17.1716C19.3357 17.0981 19.0908 17.0615 19.0051 16.939C18.7847 16.6697 18.6623 16.3147 18.5032 15.9964C18.1482 15.323 17.8053 14.5763 17.4992 13.8663C17.279 13.3888 17.1443 12.9113 16.875 12.4706C15.614 10.3894 14.2428 9.12847 12.1372 7.89193C11.6842 7.63488 11.1456 7.52469 10.5702 7.39008C10.2642 7.37776 9.95806 7.35335 9.65204 7.34103C9.45614 7.25533 9.26024 7.02277 9.08883 6.91257C8.39115 6.4718 6.5914 5.51701 6.07724 6.77796C5.74666 7.57366 6.56698 8.35712 6.84845 8.76123C7.05673 9.04276 7.32595 9.36103 7.47287 9.67936C7.55858 9.88736 7.583 10.1079 7.6687 10.3282C7.86467 10.8667 8.04819 11.4667 8.30537 11.9687C8.44005 12.2258 8.58691 12.4951 8.75832 12.7277C8.85627 12.8623 9.02761 12.9236 9.06441 13.1439C8.89307 13.3888 8.88076 13.7561 8.78274 14.0621C8.34203 15.4455 8.51352 17.1594 9.1378 18.1755C9.33363 18.4814 9.79889 19.155 10.4232 18.8978C10.9742 18.6775 10.8518 17.9797 11.0108 17.3675C11.0477 17.2205 11.0232 17.1227 11.0966 17.0247V17.0493C11.268 17.392 11.4393 17.7226 11.5985 18.0654C11.9781 18.6652 12.6391 19.2896 13.19 19.7059C13.4839 19.9261 13.7164 20.3057 14.0838 20.4404V20.4036H14.0592C13.9857 20.2934 13.8755 20.2445 13.7777 20.1587C13.5573 19.9384 13.3124 19.6691 13.1411 19.4242C12.627 18.7386 12.1739 17.9796 11.7699 17.1961C11.5741 16.8166 11.4026 16.4004 11.2435 16.0209C11.17 15.8738 11.17 15.6536 11.0476 15.5802C10.8639 15.8495 10.5947 16.0821 10.46 16.4126C10.2275 16.939 10.2029 17.5879 10.1172 18.2611C10.0683 18.2735 10.0927 18.2611 10.0682 18.2857C9.67652 18.1877 9.54184 17.7838 9.39485 17.4409C9.02754 16.5718 8.96632 15.1761 9.28473 14.1723C9.37043 13.9152 9.73774 13.1072 9.59082 12.8624C9.51736 12.6297 9.27241 12.4951 9.1378 12.3115C8.9787 12.0788 8.80722 11.7851 8.6971 11.5279C8.40325 10.8424 8.25633 10.0833 7.93806 9.39776C7.79114 9.07942 7.53416 8.74898 7.32595 8.45514C7.09339 8.12463 6.83627 7.89193 6.65262 7.5002C6.59147 7.36559 6.50569 7.1452 6.60364 6.99828C6.62813 6.90033 6.67704 6.86367 6.77505 6.83918C6.93422 6.70443 7.38724 6.87584 7.54627 6.94931C7.99928 7.13282 8.37876 7.30437 8.75832 7.56142C8.92966 7.68386 9.11331 7.91649 9.33363 7.9777H9.59075C9.98255 8.06334 10.4232 8.00219 10.7905 8.11231C11.4394 8.32039 12.027 8.62648 12.5534 8.95706C14.1572 9.97314 15.4792 11.4178 16.373 13.1439C16.52 13.4254 16.5811 13.6826 16.7158 13.9763C16.973 14.5763 17.2912 15.1884 17.5482 15.776C17.8053 16.3513 18.0501 16.939 18.4174 17.4165C18.6011 17.6735 19.3356 17.8082 19.6662 17.9429C19.911 18.053 20.2906 18.1511 20.5109 18.2857C20.9271 18.5427 21.3433 18.8366 21.7351 19.1181C21.931 19.265 22.5431 19.5711 22.5799 19.8159V19.8159Z" fill="#00546B"/>
<path d="M10.0925 9.17725C9.88448 9.17725 9.73762 9.20187 9.5907 9.23853V9.26302H9.61519C9.71321 9.45892 9.88448 9.5936 10.0068 9.76494C10.1049 9.96077 10.1905 10.1567 10.2885 10.3526C10.3007 10.3403 10.3129 10.3282 10.3129 10.3282C10.4844 10.2056 10.5701 10.0098 10.5701 9.71597C10.4966 9.63033 10.4843 9.54463 10.4231 9.45892C10.3497 9.33641 10.1905 9.27527 10.0925 9.17725V9.17725Z" fill="#00546B"/>
</svg>
