<svg width="30" height="30" viewBox="0 0 30 30" fill="none" xmlns="http://www.w3.org/2000/svg">
<rect width="30" height="30" rx="5" fill="#76D04B"/>
<mask id="path-2-inside-1" fill="white">
<path d="M14.9955 5.25C14.7218 5.25 14.448 5.3175 14.2118 5.4525L6.78 9.7425C6.3 10.02 6 10.545 6 11.1V18.885C6 19.4475 6.3 19.965 6.78 20.2425L8.73 21.3675C9.675 21.8325 10.0125 21.8325 10.44 21.8325C11.8425 21.8325 12.645 20.985 12.645 19.515V11.4825C12.645 11.4248 12.6221 11.3695 12.5813 11.3287C12.5405 11.2879 12.4852 11.265 12.4275 11.265H11.49C11.4613 11.2646 11.4329 11.2699 11.4063 11.2807C11.3797 11.2915 11.3556 11.3075 11.3353 11.3278C11.315 11.3481 11.299 11.3722 11.2882 11.3988C11.2774 11.4254 11.2721 11.4538 11.2725 11.4825V19.5075C11.2725 20.1675 10.59 20.8125 9.4875 20.265L7.4475 19.0875C7.41092 19.0679 7.38039 19.0387 7.35924 19.003C7.33808 18.9673 7.32711 18.9265 7.3275 18.885V11.1075C7.3275 11.0175 7.3725 10.9425 7.4475 10.8975L14.88 6.6075C14.9148 6.5855 14.9551 6.57383 14.9962 6.57383C15.0374 6.57383 15.0777 6.5855 15.1125 6.6075L22.545 10.8975C22.62 10.9425 22.665 11.0175 22.665 11.1V18.885C22.665 18.9675 22.62 19.05 22.5525 19.0875L15.1125 23.385C15.0765 23.4034 15.0367 23.413 14.9962 23.413C14.9558 23.413 14.916 23.4034 14.88 23.385L12.9675 22.2525C12.9418 22.2336 12.9114 22.2222 12.8796 22.2196C12.8478 22.2169 12.816 22.2231 12.7875 22.2375C12.255 22.5375 12.1575 22.575 11.6625 22.7475C11.5425 22.785 11.355 22.86 11.73 23.07L14.2125 24.54C14.4525 24.675 14.7225 24.75 14.9925 24.75C15.27 24.75 15.54 24.675 15.78 24.54L23.22 20.2425C23.7 19.965 24 19.4475 24 18.885V11.1075C24 10.545 23.7 10.0275 23.22 9.75L15.78 5.4525C15.543 5.3175 15.27 5.25 14.9955 5.25V5.25ZM16.995 11.2545C14.8725 11.2545 13.605 12.1545 13.605 13.6545C13.605 15.282 14.865 15.7305 16.905 15.933C19.3425 16.173 19.53 16.5345 19.53 17.0145C19.53 17.8395 18.8625 18.192 17.295 18.192C15.3225 18.192 14.8875 17.6963 14.745 16.7213C14.7377 16.6709 14.7124 16.6249 14.6738 16.5918C14.6352 16.5587 14.5859 16.5407 14.535 16.5413H13.5675C13.5118 16.5413 13.4584 16.5634 13.419 16.6028C13.3796 16.6421 13.3575 16.6956 13.3575 16.7512C13.3575 18.0037 14.04 19.4963 17.295 19.4963C19.65 19.4963 21 18.5662 21 16.9462C21 15.3412 19.9125 14.9138 17.6325 14.6063C15.315 14.3063 15.0825 14.1488 15.0825 13.6088C15.0825 13.1588 15.285 12.5663 16.995 12.5663C18.5175 12.5663 19.0875 12.8962 19.32 13.9237C19.3425 14.0212 19.425 14.0963 19.53 14.0963H20.4975C20.5575 14.0963 20.61 14.0662 20.655 14.0212C20.6754 13.9993 20.6907 13.9732 20.6998 13.9446C20.7089 13.9161 20.7115 13.8859 20.7075 13.8563C20.5575 12.0863 19.38 11.2538 16.995 11.2538V11.2545Z"/>
</mask>
<path d="M14.9955 5.25C14.7218 5.25 14.448 5.3175 14.2118 5.4525L6.78 9.7425C6.3 10.02 6 10.545 6 11.1V18.885C6 19.4475 6.3 19.965 6.78 20.2425L8.73 21.3675C9.675 21.8325 10.0125 21.8325 10.44 21.8325C11.8425 21.8325 12.645 20.985 12.645 19.515V11.4825C12.645 11.4248 12.6221 11.3695 12.5813 11.3287C12.5405 11.2879 12.4852 11.265 12.4275 11.265H11.49C11.4613 11.2646 11.4329 11.2699 11.4063 11.2807C11.3797 11.2915 11.3556 11.3075 11.3353 11.3278C11.315 11.3481 11.299 11.3722 11.2882 11.3988C11.2774 11.4254 11.2721 11.4538 11.2725 11.4825V19.5075C11.2725 20.1675 10.59 20.8125 9.4875 20.265L7.4475 19.0875C7.41092 19.0679 7.38039 19.0387 7.35924 19.003C7.33808 18.9673 7.32711 18.9265 7.3275 18.885V11.1075C7.3275 11.0175 7.3725 10.9425 7.4475 10.8975L14.88 6.6075C14.9148 6.5855 14.9551 6.57383 14.9962 6.57383C15.0374 6.57383 15.0777 6.5855 15.1125 6.6075L22.545 10.8975C22.62 10.9425 22.665 11.0175 22.665 11.1V18.885C22.665 18.9675 22.62 19.05 22.5525 19.0875L15.1125 23.385C15.0765 23.4034 15.0367 23.413 14.9962 23.413C14.9558 23.413 14.916 23.4034 14.88 23.385L12.9675 22.2525C12.9418 22.2336 12.9114 22.2222 12.8796 22.2196C12.8478 22.2169 12.816 22.2231 12.7875 22.2375C12.255 22.5375 12.1575 22.575 11.6625 22.7475C11.5425 22.785 11.355 22.86 11.73 23.07L14.2125 24.54C14.4525 24.675 14.7225 24.75 14.9925 24.75C15.27 24.75 15.54 24.675 15.78 24.54L23.22 20.2425C23.7 19.965 24 19.4475 24 18.885V11.1075C24 10.545 23.7 10.0275 23.22 9.75L15.78 5.4525C15.543 5.3175 15.27 5.25 14.9955 5.25V5.25ZM16.995 11.2545C14.8725 11.2545 13.605 12.1545 13.605 13.6545C13.605 15.282 14.865 15.7305 16.905 15.933C19.3425 16.173 19.53 16.5345 19.53 17.0145C19.53 17.8395 18.8625 18.192 17.295 18.192C15.3225 18.192 14.8875 17.6963 14.745 16.7213C14.7377 16.6709 14.7124 16.6249 14.6738 16.5918C14.6352 16.5587 14.5859 16.5407 14.535 16.5413H13.5675C13.5118 16.5413 13.4584 16.5634 13.419 16.6028C13.3796 16.6421 13.3575 16.6956 13.3575 16.7512C13.3575 18.0037 14.04 19.4963 17.295 19.4963C19.65 19.4963 21 18.5662 21 16.9462C21 15.3412 19.9125 14.9138 17.6325 14.6063C15.315 14.3063 15.0825 14.1488 15.0825 13.6088C15.0825 13.1588 15.285 12.5663 16.995 12.5663C18.5175 12.5663 19.0875 12.8962 19.32 13.9237C19.3425 14.0212 19.425 14.0963 19.53 14.0963H20.4975C20.5575 14.0963 20.61 14.0662 20.655 14.0212C20.6754 13.9993 20.6907 13.9732 20.6998 13.9446C20.7089 13.9161 20.7115 13.8859 20.7075 13.8563C20.5575 12.0863 19.38 11.2538 16.995 11.2538V11.2545Z" fill="white"/>
<path d="M14.2118 5.4525L-35.4021 -81.3718L-35.5923 -81.2632L-35.7819 -81.1537L14.2118 5.4525ZM6.78 9.7425L-43.2137 -76.8637L-43.242 -76.8473L-43.2703 -76.831L6.78 9.7425ZM6.78 20.2425L-43.2703 106.816L-43.2313 106.839L-43.1922 106.861L6.78 20.2425ZM8.73 21.3675L-41.2422 107.986L-38.3828 109.636L-35.4208 111.093L8.73 21.3675ZM12.645 11.4825H-87.355H12.645ZM12.4275 11.265L12.4275 111.265L12.4275 11.265ZM11.49 11.265L10.0815 111.255L10.7857 111.265H11.49V11.265ZM11.2725 11.4825H111.272V10.7782L111.263 10.074L11.2725 11.4825ZM9.4875 20.265L-40.5031 106.873L-37.7928 108.437L-34.99 109.829L9.4875 20.265ZM7.4475 19.0875L57.4381 -67.5205L56.0504 -68.3214L54.6378 -69.0776L7.4475 19.0875ZM7.3275 18.885L107.323 19.8288L107.327 19.3569V18.885H7.3275ZM7.4475 10.8975L-42.5424 -75.7109L-43.2759 -75.2875L-44.0021 -74.8518L7.4475 10.8975ZM14.88 6.6075L64.8699 93.2159L66.6202 92.2056L68.3283 91.1254L14.88 6.6075ZM15.1125 6.6075L-38.3358 91.1254L-36.6277 92.2056L-34.8774 93.2159L15.1125 6.6075ZM22.545 10.8975L73.9946 -74.8518L73.2684 -75.2875L72.5349 -75.7109L22.545 10.8975ZM22.5525 19.0875L-26.0118 -68.3282L-26.7419 -67.9226L-27.4651 -67.5049L22.5525 19.0875ZM15.1125 23.385L60.7007 112.389L62.9458 111.239L65.1301 109.977L15.1125 23.385ZM14.88 23.385L-36.0725 109.431L-33.4357 110.992L-30.7082 112.389L14.88 23.385ZM12.9675 22.2525L-46.2819 102.81L-42.2701 105.761L-37.985 108.298L12.9675 22.2525ZM12.7875 22.2375L-32.311 -67.0157L-34.328 -65.9965L-36.2969 -64.8873L12.7875 22.2375ZM11.6625 22.7475L41.49 118.195L43.0383 117.712L44.57 117.178L11.6625 22.7475ZM11.73 23.07L62.6817 -62.976L61.6433 -63.5909L60.5903 -64.1806L11.73 23.07ZM14.2125 24.54L-36.7392 110.586L-35.7826 111.153L-34.8136 111.698L14.2125 24.54ZM15.78 24.54L64.8061 111.698L65.3035 111.418L65.7976 111.132L15.78 24.54ZM23.22 20.2425L73.2376 106.835L73.2539 106.825L73.2703 106.816L23.22 20.2425ZM23.22 9.75L73.2703 -76.8235L73.2539 -76.8329L73.2376 -76.8424L23.22 9.75ZM15.78 5.4525L65.7976 -81.1399L65.5369 -81.2904L65.2754 -81.4394L15.78 5.4525ZM16.995 11.2545V111.254H116.995V11.2545H16.995ZM16.905 15.933L7.02708 115.444L7.06665 115.448L7.10623 115.452L16.905 15.933ZM14.745 16.7213L-84.2301 31.0017L-84.217 31.0924L-84.2038 31.183L14.745 16.7213ZM14.535 16.5413V116.541H15.0475L15.5599 116.536L14.535 16.5413ZM13.3575 16.7512H113.358H13.3575ZM17.6325 14.6063L30.9983 -84.4965L30.7344 -84.5321L30.4704 -84.5663L17.6325 14.6063ZM19.32 13.9237L-78.2142 35.9935L-78.1671 36.2017L-78.1191 36.4097L19.32 13.9237ZM20.655 14.0212L91.3657 84.7319L92.6239 83.4737L93.8365 82.1716L20.655 14.0212ZM20.7075 13.8563L-78.9353 22.3006L-78.7277 24.7506L-78.3999 27.1874L20.7075 13.8563ZM16.995 11.2538V-88.7462H-83.005V11.2538H16.995ZM14.9955 -94.75C-1.33345 -94.75 -18.9277 -90.7858 -35.4021 -81.3718L63.8256 92.2768C47.8237 101.421 30.7769 105.25 14.9955 105.25V-94.75ZM-35.7819 -81.1537L-43.2137 -76.8637L56.7737 96.3487L64.2054 92.0587L-35.7819 -81.1537ZM-43.2703 -76.831C-74.9876 -58.4944 -94 -24.7832 -94 11.1H106C106 45.8732 87.5876 78.5344 56.8303 96.316L-43.2703 -76.831ZM-94 11.1V18.885H106V11.1H-94ZM-94 18.885C-94 55.042 -74.7583 88.612 -43.2703 106.816L56.8303 -66.331C87.3583 -48.682 106 -16.147 106 18.885H-94ZM-43.1922 106.861L-41.2422 107.986L58.7022 -65.2511L56.7522 -66.3761L-43.1922 106.861ZM-35.4208 111.093C-31.2064 113.167 -23.1136 116.851 -12.3677 119.291C-0.254681 122.042 9.7517 121.833 10.44 121.833V-78.1675C9.85273 -78.1675 13.1019 -78.2041 16.9303 -77.943C21.452 -77.6345 26.5074 -76.9729 31.9258 -75.7424C42.1599 -73.4182 49.6114 -69.967 52.8808 -68.3582L-35.4208 111.093ZM10.44 121.833C31.5372 121.833 60.9657 114.939 84.5598 90.109C107.46 66.0092 112.645 37.8309 112.645 19.515H-87.355C-87.355 2.66909 -82.5716 -24.3504 -60.4229 -47.659C-37.5807 -71.6974 -9.25465 -78.1675 10.44 -78.1675V121.833ZM112.645 19.515V11.4825H-87.355V19.515H112.645ZM112.645 11.4825C112.645 -15.0968 102.086 -40.5875 83.292 -59.382L-58.1294 82.0394C-76.8422 63.3265 -87.355 37.9464 -87.355 11.4825L112.645 11.4825ZM83.292 -59.382C64.4975 -78.1764 39.0068 -88.735 12.4275 -88.735L12.4275 111.265C-14.0364 111.265 -39.4165 100.752 -58.1294 82.0394L83.292 -59.382ZM12.4275 -88.735H11.49V111.265H12.4275V-88.735ZM12.8985 -88.7251C-0.496651 -88.9138 -13.7952 -86.4149 -26.2104 -81.3744L49.023 103.936C36.6609 108.955 23.4193 111.443 10.0815 111.255L12.8985 -88.7251ZM-26.2104 -81.3744C-38.6247 -76.3344 -49.9019 -68.8564 -59.3754 -59.3829L82.046 82.0385C72.613 91.4714 61.3841 98.9175 49.023 103.936L-26.2104 -81.3744ZM-59.3754 -59.3829C-68.8495 -49.9087 -76.3273 -38.6313 -81.3669 -26.2179L103.943 49.0155C98.9253 61.3758 91.4796 72.6049 82.046 82.0385L-59.3754 -59.3829ZM-81.3669 -26.2179C-86.4067 -13.8043 -88.9063 -0.505826 -88.7176 12.891L111.263 10.074C111.45 23.4135 108.962 36.655 103.943 49.0155L-81.3669 -26.2179ZM-88.7275 11.4825V19.5075H111.272V11.4825H-88.7275ZM-88.7275 19.5075C-88.7275 -13.6882 -71.6491 -47.8261 -38.6211 -66.5988C-3.01737 -86.8356 32.7457 -79.8367 53.965 -69.2992L-34.99 109.829C-12.6682 120.914 23.9874 127.864 60.208 107.277C93.8528 88.1536 111.272 53.3632 111.272 19.5075H-88.7275ZM59.4781 -66.343L57.4381 -67.5205L-42.5431 105.695L-40.5031 106.873L59.4781 -66.343ZM54.6378 -69.0776C70.7005 -60.48 84.1014 -47.649 93.3884 -31.9772L-78.6699 69.9832C-69.3407 85.7264 -55.8787 98.6158 -39.7428 107.253L54.6378 -69.0776ZM93.3884 -31.9772C102.676 -16.3049 107.495 1.61147 107.323 19.8288L-92.668 17.9412C-92.8408 36.2415 -87.9995 54.2395 -78.6699 69.9832L93.3884 -31.9772ZM107.327 18.885V11.1075H-92.6725V18.885H107.327ZM107.327 11.1075C107.327 47.603 87.6699 79.3831 58.8971 96.6468L-44.0021 -74.8518C-72.9249 -57.4981 -92.6725 -25.568 -92.6725 11.1075H107.327ZM57.4374 97.5059L64.8699 93.2159L-35.1099 -80.0009L-42.5424 -75.7109L57.4374 97.5059ZM68.3283 91.1254C52.3707 101.217 33.8773 106.574 14.9962 106.574V-93.4262C-3.9671 -93.4262 -22.5411 -88.0459 -38.5683 -77.9104L68.3283 91.1254ZM14.9962 106.574C-3.88479 106.574 -22.3782 101.217 -38.3358 91.1254L68.5608 -77.9104C52.5336 -88.0459 33.9596 -93.4262 14.9962 -93.4262V106.574ZM-34.8774 93.2159L-27.4449 97.5059L72.5349 -75.7109L65.1024 -80.0009L-34.8774 93.2159ZM-28.9046 96.6468C-56.1066 80.3256 -77.335 49.3377 -77.335 11.1H122.665C122.665 -27.3027 101.347 -58.4406 73.9946 -74.8518L-28.9046 96.6468ZM-77.335 11.1V18.885H122.665V11.1H-77.335ZM-77.335 18.885C-77.335 -13.0785 -61.2566 -48.7478 -26.0118 -68.3282L71.1168 106.503C106.497 86.8478 122.665 51.0135 122.665 18.885H-77.335ZM-27.4651 -67.5049L-34.9051 -63.2074L65.1301 109.977L72.5701 105.68L-27.4651 -67.5049ZM-30.4757 -65.619C-16.4016 -72.8278 -0.815704 -76.587 14.9962 -76.587V123.413C30.8891 123.413 46.5547 119.635 60.7007 112.389L-30.4757 -65.619ZM14.9962 -76.587C30.8082 -76.587 46.3941 -72.8278 60.4682 -65.619L-30.7082 112.389C-16.5622 119.635 -0.896553 123.413 14.9962 123.413V-76.587ZM65.8325 -62.6606L63.92 -63.7931L-37.985 108.298L-36.0725 109.431L65.8325 -62.6606ZM72.2169 -58.305C57.2998 -69.2764 39.6348 -75.8975 21.1842 -77.435L4.57507 121.874C-13.812 120.342 -31.4162 113.744 -46.2819 102.81L72.2169 -58.305ZM21.1842 -77.435C2.73412 -78.9725 -15.7832 -75.3669 -32.311 -67.0157L57.886 111.491C41.4151 119.813 22.9616 123.406 4.57507 121.874L21.1842 -77.435ZM-36.2969 -64.8873C-36.1996 -64.9421 -35.3481 -65.4235 -34.1971 -66.0306C-32.8785 -66.7261 -30.9868 -67.6841 -28.6625 -68.725C-24.2537 -70.6995 -20.3382 -71.9989 -21.245 -71.6829L44.57 117.178C50.2614 115.195 55.8164 112.774 61.8719 109.362L-36.2969 -64.8873ZM-18.165 -72.7005C-18.8296 -72.4928 -26.9855 -70.091 -36.2904 -65.0191C-42.09 -61.8578 -72.3731 -45.3064 -84.2222 -6.05632C-98.6774 41.8268 -73.9915 77.3245 -62.9367 89.6638C-51.9685 101.907 -40.6418 108.354 -37.1303 110.321L60.5903 -64.1806C63.9143 -62.3192 75.1238 -55.9597 86.0255 -43.7912C97.0137 -31.5262 121.684 3.91099 107.243 51.7444C95.4094 90.9448 65.1722 107.457 59.4298 110.587C50.1821 115.628 42.0946 118.007 41.49 118.195L-18.165 -72.7005ZM-39.2217 109.116L-36.7392 110.586L65.1642 -61.506L62.6817 -62.976L-39.2217 109.116ZM-34.8136 111.698C-20.6864 119.644 -3.65025 124.75 14.9925 124.75V-75.25C33.0953 -75.25 49.5914 -70.2941 63.2386 -62.6176L-34.8136 111.698ZM14.9925 124.75C33.403 124.75 50.4569 119.769 64.8061 111.698L-33.2461 -62.6176C-19.3769 -70.419 -2.86296 -75.25 14.9925 -75.25V124.75ZM65.7976 111.132L73.2376 106.835L-26.7976 -66.3499L-34.2376 -62.0524L65.7976 111.132ZM73.2703 106.816C104.758 88.612 124 55.0421 124 18.885H-76C-76 -16.1471 -57.3582 -48.682 -26.8303 -66.331L73.2703 106.816ZM124 18.885V11.1075H-76V18.885H124ZM124 11.1075C124 -25.0495 104.758 -58.6195 73.2703 -76.8235L-26.8303 96.3235C-57.3583 78.6745 -76 46.1395 -76 11.1075H124ZM73.2376 -76.8424L65.7976 -81.1399L-34.2376 92.0449L-26.7976 96.3424L73.2376 -76.8424ZM65.2754 -81.4394C48.9069 -90.7633 31.3765 -94.75 14.9955 -94.75V105.25C-0.836477 105.25 -17.8209 101.398 -33.7154 92.3444L65.2754 -81.4394ZM16.995 -88.7455C3.6424 -88.7455 -20.0558 -86.1781 -43.3086 -69.7027C-70.579 -50.3806 -86.395 -19.246 -86.395 13.6545H113.605C113.605 45.055 98.4228 74.9896 72.3168 93.4867C50.2283 109.137 28.2251 111.254 16.995 111.254V-88.7455ZM-86.395 13.6545C-86.395 27.0824 -83.7239 44.706 -73.8881 62.6779C-63.8594 81.002 -49.8364 93.3768 -36.8349 101.152C-15.4686 113.93 5.33741 115.276 7.02708 115.444L26.7829 -83.5779C28.4381 -83.4136 32.8852 -82.9357 38.5827 -81.5859C44.0684 -80.2862 54.3372 -77.3598 65.8149 -70.4958C78.2464 -63.0615 91.8269 -51.1166 101.556 -33.3406C111.091 -15.9169 113.605 1.04038 113.605 13.6545H-86.395ZM7.10623 115.452C5.77164 115.32 2.37343 114.957 -2.06952 114.03C-5.77806 113.257 -15.3476 111.087 -26.5175 105.357C-38.9736 98.9657 -56.8124 86.3276 -68.9157 63.4664C-80.3346 41.898 -80.47 22.3164 -80.47 17.0145H119.53C119.53 11.4726 119.371 -8.33419 107.841 -30.1129C95.6263 -53.1844 77.5883 -66.0179 64.7806 -72.5891C45.5919 -82.4342 27.2639 -83.5306 26.7038 -83.5858L7.10623 115.452ZM-80.47 17.0145C-80.47 3.59937 -77.665 -14.5425 -66.9471 -32.8913C-56.0589 -51.5315 -41.0355 -63.4834 -27.6308 -70.5494C-5.3449 -82.297 14.8791 -81.808 17.295 -81.808V118.192C21.2784 118.192 42.6199 118.505 65.6314 106.375C79.399 99.1174 94.6872 86.9227 105.75 67.9843C116.642 49.3374 119.53 30.8421 119.53 17.0145H-80.47ZM17.295 -81.808C19.4666 -81.808 44.647 -82.6165 70.3478 -65.6849C104.969 -42.8769 112.08 -8.7801 113.694 2.25951L-84.2038 31.183C-82.4478 43.1976 -75.0475 78.0298 -39.6803 101.329C-13.2333 118.753 13.1509 118.192 17.295 118.192V-81.808ZM113.72 2.44079C110.254 -21.5848 98.184 -43.5358 79.753 -59.3339L-50.4053 92.5175C-68.7591 76.7856 -80.7781 54.9266 -84.2301 31.0017L113.72 2.44079ZM79.753 -59.3339C61.3214 -75.1323 37.7826 -83.7023 13.5101 -83.4535L15.5599 116.536C-8.61085 116.784 -32.0511 108.25 -50.4053 92.5175L79.753 -59.3339ZM14.535 -83.4587H13.5675V116.541H14.535V-83.4587ZM13.5675 -83.4587C-13.0098 -83.4587 -38.4986 -72.901 -57.2917 -54.1079L84.1297 87.3134C65.4154 106.028 40.0334 116.541 13.5675 116.541V-83.4587ZM-57.2917 -54.1079C-76.0848 -35.3148 -86.6425 -9.8259 -86.6425 16.7512H113.358C113.358 43.217 102.844 68.599 84.1297 87.3134L-57.2917 -54.1079ZM-86.6425 16.7512C-86.6425 35.1131 -81.2405 66.8346 -53.4885 92.289C-27.3745 116.241 2.29654 119.496 17.295 119.496V-80.5037C29.0385 -80.5037 56.7407 -77.9948 81.6998 -55.1021C108.297 -30.7071 113.358 -0.358135 113.358 16.7512L-86.6425 16.7512ZM17.295 119.496C29.466 119.496 53.1498 117.434 76.7354 101.197C105.154 81.633 121 49.8275 121 16.9462H-79C-79 -14.315 -63.8291 -44.8455 -36.6741 -63.5398C-14.3523 -78.9067 7.47896 -80.5037 17.295 -80.5037V119.496ZM121 16.9462C121 5.46381 119.063 -11.4208 109.934 -29.3758C100.36 -48.2056 86.4076 -61.288 72.9395 -69.6545C60.7676 -77.2158 49.6975 -80.5182 43.9678 -81.988C37.9817 -83.5235 33.036 -84.2217 30.9983 -84.4965L4.26667 113.709C3.36899 113.588 -0.585771 113.059 -5.72667 111.74C-10.6113 110.487 -20.982 107.449 -32.597 100.234C-45.5082 92.2133 -59.0464 79.5579 -68.3451 61.2694C-77.1991 43.8554 -79 27.6262 -79 16.9462H121ZM30.4704 -84.5663C30.5897 -84.5508 31.0141 -84.4954 31.6279 -84.4038C32.2138 -84.3163 33.3177 -84.1447 34.7392 -83.8773C36.2807 -83.5874 44.2253 -82.1469 53.8262 -78.1617C64.1002 -73.897 85.4154 -62.9734 100.597 -38.0078C115.148 -14.0806 115.083 8.61917 115.083 13.6088H-84.9175C-84.9175 18.8683 -84.9534 41.7903 -70.2871 65.9083C-54.9893 91.0647 -33.4712 102.148 -22.8493 106.557C-12.9006 110.686 -4.46331 112.256 -2.22648 112.677C0.994269 113.283 3.71546 113.639 4.79463 113.779L30.4704 -84.5663ZM115.083 13.6088C115.083 29.9156 110.305 65.9469 76.5583 92.0349C50.4188 112.242 23.5212 112.566 16.995 112.566V-87.4337C8.75883 -87.4337 -19.0951 -86.8132 -45.7633 -66.1974C-80.0388 -39.7006 -84.9175 -3.14808 -84.9175 13.6088H115.083ZM16.995 112.566C14.9652 112.566 -7.67593 113.268 -31.718 99.2538C-63.72 80.5998 -74.7469 51.317 -78.2142 35.9935L116.854 -8.14604C113.154 -24.497 101.726 -54.4586 69.0005 -73.5344C44.2347 -87.9705 20.5473 -87.4337 16.995 -87.4337V112.566ZM-78.1191 36.4097C-68.807 76.7623 -32.197 114.096 19.53 114.096V-85.9037C71.047 -85.9037 107.492 -48.7198 116.759 -8.5622L-78.1191 36.4097ZM19.53 114.096H20.4975V-85.9037H19.53V114.096ZM20.4975 114.096C56.4332 114.096 80.4209 95.6767 91.3657 84.7319L-50.0557 -56.6894C-39.2009 -67.5442 -15.3182 -85.9037 20.4975 -85.9037V114.096ZM93.8365 82.1716C103.935 71.3277 111.501 58.3809 115.992 44.265L-74.5928 -16.3757C-70.1195 -30.4346 -62.5841 -43.329 -52.5265 -54.1291L93.8365 82.1716ZM115.992 44.265C120.484 30.1494 121.79 15.211 119.815 0.52511L-78.3999 27.1874C-80.3674 12.5609 -79.066 -2.31721 -74.5928 -16.3757L115.992 44.265ZM120.35 5.41194C118.362 -18.0523 107.162 -48.8696 77.1703 -69.9375C52.2077 -87.4726 27.1186 -88.7462 16.995 -88.7462V111.254C9.25645 111.254 -14.0514 110.396 -37.7915 93.72C-66.561 73.5108 -77.0968 43.9948 -78.9353 22.3006L120.35 5.41194ZM-83.005 11.2538V11.2545H116.995V11.2538H-83.005Z" fill="white" mask="url(#path-2-inside-1)"/>
</svg>
