<svg width="30" height="30" viewBox="0 0 30 30" fill="none" xmlns="http://www.w3.org/2000/svg">
<rect width="30" height="30" rx="5" fill="#4630EB"/>
<path d="M7.8 8C6.801 8 6 8.801 6 9.8V20.6C6 21.0774 6.18964 21.5352 6.52721 21.8728C6.86477 22.2104 7.32261 22.4 7.8 22.4H22.2C22.6774 22.4 23.1352 22.2104 23.4728 21.8728C23.8104 21.5352 24 21.0774 24 20.6V11.6C24 11.1226 23.8104 10.6648 23.4728 10.3272C23.1352 9.98964 22.6774 9.8 22.2 9.8H15L13.2 8H7.8ZM15 12.5H17.7V14.3H15V12.5ZM18.6 12.5H21.3V14.3H18.6V12.5ZM15 15.2H17.7V17H15V15.2ZM18.6 15.2H21.3V17H18.6V15.2ZM15 17.9H17.7V19.7H15V17.9ZM18.6 17.9H21.3V19.7H18.6V17.9Z" fill="white"/>
</svg>
