<svg width="30" height="30" viewBox="0 0 30 30" fill="none" xmlns="http://www.w3.org/2000/svg">
<rect width="30" height="30" rx="5" fill="#48CEF7"/>
<path d="M15 13.3692C15.8623 13.3692 16.5656 14.0724 16.5656 14.9515C16.5656 15.7887 15.8623 16.5003 15 16.5003C14.1377 16.5003 13.4344 15.7887 13.4344 14.9515C13.4344 14.0724 14.1377 13.3692 15 13.3692ZM11.1237 21.6492C11.6512 21.9673 12.8065 21.4817 14.1377 20.2259C13.7023 19.732 13.2753 19.1961 12.8735 18.6352C12.1988 18.5706 11.5281 18.47 10.8642 18.3338C10.4372 20.1254 10.5963 21.3561 11.1237 21.6492V21.6492ZM11.7181 16.8436L11.4753 16.4166C11.3833 16.6594 11.2912 16.9022 11.2326 17.1366C11.4586 17.1868 11.7098 17.2287 11.9693 17.2706L11.7181 16.8436ZM17.1935 16.2073L17.8716 14.9515L17.1935 13.6957C16.9423 13.252 16.6744 12.8585 16.4316 12.465C15.9795 12.4399 15.5023 12.4399 15 12.4399C14.4977 12.4399 14.0205 12.4399 13.5684 12.465C13.3256 12.8585 13.0577 13.252 12.8065 13.6957L12.1284 14.9515L12.8065 16.2073C13.0577 16.651 13.3256 17.0445 13.5684 17.438C14.0205 17.4631 14.4977 17.4631 15 17.4631C15.5023 17.4631 15.9795 17.4631 16.4316 17.438C16.6744 17.0445 16.9423 16.651 17.1935 16.2073V16.2073ZM15 10.5813C14.8409 10.7654 14.6735 10.958 14.506 11.1841H15.494C15.3265 10.958 15.1591 10.7654 15 10.5813ZM15 19.3217C15.1591 19.1375 15.3265 18.945 15.494 18.7189H14.506C14.6735 18.945 14.8409 19.1375 15 19.3217ZM18.8679 8.25382C18.3488 7.93568 17.1935 8.42126 15.8623 9.67708C16.2977 10.171 16.7247 10.7068 17.1265 11.2678C17.813 11.3347 18.4912 11.4352 19.1358 11.5692C19.5628 9.77754 19.4037 8.54684 18.8679 8.25382ZM18.2819 13.0594L18.5247 13.4864C18.6167 13.2436 18.7088 13.0008 18.7674 12.7664C18.5414 12.7161 18.2902 12.6743 18.0307 12.6324L18.2819 13.0594V13.0594ZM19.4958 7.15708C20.7265 7.86033 20.8605 9.71056 20.3414 11.8706C22.4679 12.4985 24 13.5366 24 14.9515C24 16.3664 22.4679 17.4045 20.3414 18.0324C20.8605 20.1924 20.7265 22.0427 19.4958 22.7459C18.2735 23.4492 16.6074 22.6454 15 21.1134C13.3926 22.6454 11.7265 23.4492 10.4958 22.7459C9.27349 22.0427 9.13953 20.1924 9.6586 18.0324C7.53209 17.4045 6 16.3664 6 14.9515C6 13.5366 7.53209 12.4985 9.6586 11.8706C9.13953 9.71056 9.27349 7.86033 10.4958 7.15708C11.7265 6.45382 13.3926 7.25754 15 8.78963C16.6074 7.25754 18.2735 6.45382 19.4958 7.15708ZM19.253 14.9515C19.5377 15.5794 19.7888 16.2073 19.9981 16.8436C21.7563 16.3161 22.7442 15.5627 22.7442 14.9515C22.7442 14.3403 21.7563 13.5868 19.9981 13.0594C19.7888 13.6957 19.5377 14.3236 19.253 14.9515ZM10.747 14.9515C10.4623 14.3236 10.2112 13.6957 10.0019 13.0594C8.24372 13.5868 7.25581 14.3403 7.25581 14.9515C7.25581 15.5627 8.24372 16.3161 10.0019 16.8436C10.2112 16.2073 10.4623 15.5794 10.747 14.9515ZM18.2819 16.8436L18.0307 17.2706C18.2902 17.2287 18.5414 17.1868 18.7674 17.1366C18.7088 16.9022 18.6167 16.6594 18.5247 16.4166L18.2819 16.8436V16.8436ZM15.8623 20.2259C17.1935 21.4817 18.3488 21.9673 18.8679 21.6492C19.4037 21.3561 19.5628 20.1254 19.1358 18.3338C18.4912 18.4678 17.813 18.5682 17.1265 18.6352C16.7247 19.1961 16.2977 19.732 15.8623 20.2259V20.2259ZM11.7181 13.0594L11.9693 12.6324C11.7098 12.6743 11.4586 12.7161 11.2326 12.7664C11.2912 13.0008 11.3833 13.2436 11.4753 13.4864L11.7181 13.0594ZM14.1377 9.67708C12.8065 8.42126 11.6512 7.93568 11.1237 8.25382C10.5963 8.54684 10.4372 9.77754 10.8642 11.5692C11.5281 11.4329 12.1988 11.3323 12.8735 11.2678C13.2753 10.7068 13.7023 10.171 14.1377 9.67708V9.67708Z" fill="white"/>
</svg>
